Patient4_TMGait_0pt8_01_left_19_EMG.mot
version=1
nRows=37
nColumns=33
inDegrees=no
endheader
time	1LAddLong	2LGlutMax	3LGlutMed	4LIliopsoas	5LSemiMemb	6LBicFemLong	7LRecFem	8LVastMed	9LVastLat	10LGasMed	11LTibAnt	12lTibPost	13LPeroneusLong	14LSol	15LExtDigLong	16LFlexDigLong	17RAddLong	18RGlutMax	19RGlutMed	20RIliopsoas	21RSemiMemb	22RBicFemLong	23RRecFem	24RVastMed	25RVastLat	26RGasMed	27RTibAnt	28RTibPost	29RPeroneusLong	30RSol	31RExtDigLong	32RFlexDigLong
21.325	0.012512	0.22598	-0.061188	0.015717	0.045624	0.042572	-0.24674	-0.005493	0.052185	0.32989	0.014954	-0.025787	-0.26825	-0.071869	0.002441	0.093536	-0.039673	0.031281	1.5608	0.048828	-0.046387	0.34744	0.30319	-0.04425	-0.011902	-0.012207	0.24841	-0.001221	0.085907	-0.020752	-0.005341	0.012054
21.326	0.012054	0.19943	-0.056763	-0.006104	0.029449	0.064545	-0.23911	0.001984	0.071411	-0.10422	0.015869	0.039978	0.19302	0.02182	-0.010071	-0.009918	-0.086975	-0.014954	1.6617	-0.000458	0.54352	0.27268	0.062561	0.075836	0.1947	-0.00824	0.24719	-0.002747	0.093994	-0.033264	-0.00412	0.011902
21.327	0.007477	0.15182	0.021973	-0.021057	0.023041	0.063629	-0.2385	-0.000763	0.10056	-0.86517	0.011292	0.027771	0.076904	0.12726	0.03952	-0.10223	-0.070801	-0.073242	1.5585	-0.023041	0.73746	0.13855	0.02121	0.23193	0.17593	-0.010071	0.21744	-0.002747	-0.12985	-0.053253	-0.001678	0.009003
21.328	0.011139	0.16861	0.070953	-0.025635	0.020447	0.07309	-0.26428	0.000916	0.11017	-1.1032	0.016785	-0.066071	-0.13794	0.27512	0.028381	0.10315	-0.084686	-0.046844	1.5297	-0.019226	0.72098	0.14374	0.001373	0.22415	0.072937	-0.014954	-0.11353	-0.002899	0.008392	-0.037689	-0.00412	0.004272
21.329	0.012817	0.1622	0.050354	0.015106	-0.0177	0.089264	-0.24414	0.002441	0.10681	-0.34836	0.01236	0.03479	-0.32852	0.14633	-0.022125	0.096436	-0.076141	-0.15427	1.4838	-0.044861	0.51392	0.11932	-0.021667	0.040131	-0.035248	-0.008545	-0.50034	-0.006714	0.38025	0.045013	-0.001221	0.009003
21.33	0.010529	0.15457	0.03006	0.007782	-0.010834	0.056458	-0.23697	-0.003357	0.11231	0.010376	0.009918	-0.053253	-0.32074	-0.001678	-0.037994	0.13046	-0.03418	-0.1767	1.4291	-0.064697	0.34225	0.090027	0.060425	0.004272	-0.16571	-0.00885	-0.38803	-0.001831	0.54275	0.045776	-0.002136	0.003815
21.331	0.011292	0.21423	0.057678	0.003662	-0.003052	-0.001221	-0.24277	-0.00946	0.12329	0.26825	0.003204	-0.10986	-0.061493	-0.13977	-0.010834	-0.53513	0.005341	-0.23193	1.3928	-0.039215	0.40726	0.027466	-0.040894	-0.051727	-0.23895	-0.011139	-0.2124	-0.006561	0.34271	-0.010834	-0.000153	0.008087
21.332	0.005646	0.23636	0.037689	0.013733	0.015869	0.001221	-0.21179	-0.00412	0.09964	0.55344	-0.001678	-0.084381	0.11078	-0.10895	0.016174	0.15015	0.010223	-0.22095	1.5602	-0.022278	0.60867	-0.027618	-0.080261	-0.065002	-0.23987	-0.006714	-0.088043	-0.004425	-0.017242	-0.02655	-0.003662	0.007172
21.333	0.00412	0.21027	0.031433	-0.007477	0.020142	0.003357	-0.20645	0.002441	0.062408	0.031433	0.001831	-0.20142	0.089417	-0.011444	0.049744	0.33783	-0.003357	-0.21973	1.5598	0.022736	0.62515	0.03952	-0.24506	-0.11505	-0.19379	-0.010681	0.04303	-0.005951	-0.13382	-0.052185	-0.009308	0.007172
21.334	0.002747	0.27985	0.08194	0.01297	0.041504	-0.020599	-0.22186	0.001984	0.057983	-0.82535	0.005798	0.076447	-0.075226	0.31616	0.071716	-0.067749	-0.075378	-0.28671	1.4613	0.14877	0.62088	0.21194	-0.72083	-0.096436	-0.10651	-0.010071	0.13916	-0.005341	-0.043945	-0.058594	-0.00412	0.002747
21.335	0.01297	0.28183	0.14587	0.003967	0.032959	-0.015106	-0.23636	-0.002594	0.058594	-0.84106	0.011292	-0.22614	-0.24384	0.37933	0.052948	0.075531	-0.091553	-0.39261	1.2405	0.19653	0.78964	0.36926	-0.73547	0.09201	0.075226	-0.014191	0.14221	-0.00946	0.027466	-0.022278	-0.005493	0.007782
21.336	0.010834	0.22812	0.15518	-0.015564	0.044098	-0.019531	-0.21744	0.011139	0.052795	-0.44495	0.021057	0.61142	-0.36972	0.052795	0.02594	-0.26108	-0.074615	-0.33264	1.2482	0.10666	0.91492	0.39597	-0.70358	0.17944	0.066986	-0.007477	-0.053253	-0.006256	0.39764	-0.034027	-0.001984	0.011444
21.337	0.004425	0.26382	0.18265	-0.000153	0.039063	-0.001373	-0.2092	0.041351	0.053711	-0.23804	0.017853	-0.3157	-0.39734	0.60883	0.009766	0.1387	-0.009918	-0.27756	1.2279	0.020905	0.64468	0.34744	-0.79422	0.10452	0.002594	-0.017853	-0.22873	-0.00946	-0.05722	-0.028687	-0.00412	-0.000916
21.338	0.004425	0.25986	0.22171	0.003815	0.027161	0.051727	-0.19806	-0.010376	0.055847	-0.1413	-0.005493	0.058289	-0.31387	0.63019	0.046234	0.022125	-0.00412	-0.17227	1.2407	-0.030518	0.62683	0.26764	-0.86929	0.029907	-0.012512	-0.009766	-0.21286	-0.008545	-0.12634	-0.10239	0.003204	0.005951
21.339	0.002136	0.27756	0.20584	0.001373	-0.011444	0.12589	-0.20401	0.011292	0.037384	-0.061951	-0.014038	-0.052948	-0.16724	0.99411	0.051727	-0.25711	-0.04837	-0.028992	1.468	-0.043335	0.60577	0.31189	-0.72052	-0.084686	0.18234	-0.010681	-0.097961	-0.01297	0.065002	-0.11047	-0.003967	0.001831
21.34	-0.004578	0.2945	0.22964	-0.007324	-0.040283	0.16251	-0.20279	-0.001678	0.031738	0.21439	-0.005035	-0.001221	0.013123	1.1887	0.001373	-0.023346	0.011749	0.056915	1.2433	-0.010223	0.5452	0.2562	-0.66879	-0.26398	0.67902	-0.01358	0.058899	-0.010681	0.048218	-0.081177	-0.003052	-0.007935
21.341	0.002899	0.29602	0.23499	0.002136	-0.02655	0.10025	-0.19363	0.000305	0.038757	0.47989	-0.003357	-0.11276	0.072174	-0.014496	-0.002594	0.087585	0.036621	0.10223	1.2198	-0.015411	0.57053	0.2536	-0.63294	0.060577	0.47836	-0.00946	0.20721	-0.01358	0.002136	-0.10101	-0.003662	-0.013428
21.342	0.010529	0.30655	0.26627	0.001221	-0.005493	-0.064392	-0.21851	-0.009155	0.028687	0.5217	0.000305	-0.061188	0.18799	-1.4102	-0.0354	-0.1445	0.003204	0.13519	1.3651	-0.021515	0.93048	0.36102	-0.63004	0.73212	0.21545	-0.005798	0.30609	-0.009918	-0.067902	-0.088196	0.00061	-0.022125
21.343	0.016174	0.28656	0.25345	0.002289	0.042877	-0.17349	-0.19577	-0.009003	0.036774	0.30472	-0.006866	0.03479	0.20493	-1.5771	-0.038605	0.053711	-0.018005	0.084686	1.1351	-0.023651	0.95795	0.35523	-0.63477	0.84106	0.39993	-0.002441	0.77454	-0.00885	-0.031433	-0.092316	-0.004883	-0.0177
21.344	0.014496	0.31265	0.26306	0.003662	0.052948	-0.21835	-0.16617	0.002747	0.019379	-0.52887	-0.008392	-0.011749	0.089111	-1.6522	-0.011902	0.078888	-0.063477	-0.083618	1.0823	-0.052948	0.37994	0.45624	-0.63812	0.68298	0.4303	-0.004272	0.57678	-0.011749	-0.02121	-0.073395	-0.00946	0.003967
21.345	0.006714	0.35843	0.29724	-0.019226	0.030212	-0.12863	-0.15091	-0.009766	-0.003662	-0.94635	0.006409	-0.090637	0.057983	-0.72998	0.0177	-0.005341	-0.10986	-0.15228	1.0629	-0.08728	0.36957	0.43961	-0.78888	0.31677	0.19348	-0.006561	0.24674	-0.006561	-0.018311	-0.035706	-0.003967	0.009155
21.346	-0.000458	0.35919	0.29175	0.003967	0.018158	-0.092163	-0.12497	0.008392	-0.017395	-0.75165	-0.005646	-0.024109	0.063629	0.15869	0.00885	0.087738	-0.099487	-0.2243	0.90393	-0.022278	0.29297	0.43915	-0.70389	0.029602	-0.032043	-0.003357	0.58441	-0.005951	-0.027924	-0.044098	-0.005188	0.009003
21.347	0.001526	0.36743	0.30899	0.019989	0.044861	-0.090637	-0.14053	0.002136	-0.022583	-0.32257	-0.015259	0.38193	0.42862	0.17899	0.009155	0.034943	-0.10086	-0.19806	0.57236	-0.005798	0.30868	0.42557	-0.5835	-0.24826	-0.32974	0.00061	-0.16693	-0.005493	0.10986	-0.046387	0.001373	0.003815
21.348	0.008545	0.37994	0.36194	0.014496	0.04425	-0.031738	-0.14191	0.004425	-0.017853	0.052032	-0.014343	-0.31189	0.58823	0.21622	0.031433	-0.027008	-0.092773	-0.10559	0.55649	0.024719	0.61111	0.3125	-0.60104	-0.26733	-0.43747	-0.005493	-1.1453	-0.007324	0.24078	-0.036621	0.000305	0.005188
21.349	0.009613	0.34912	0.43701	0.019989	0.036621	-0.027008	-0.16403	0.00061	-0.015869	0.43625	-0.00351	-0.010529	0.36667	0.50018	0.019073	-0.014954	-0.034027	-0.20981	0.61371	0.057678	0.79178	0.30945	-0.59357	-0.49179	-0.36087	-0.00824	-1.0031	-0.007935	0.18112	0.028534	-0.003052	0.010071
21.35	-0.004578	0.36163	0.45227	-0.002136	0.036926	-0.00061	-0.12207	-0.003052	-0.030212	0.53696	-0.001221	-0.04715	0.090332	0.21637	-0.009155	0.046234	0.007477	-0.19272	0.79117	0.01297	0.60455	0.35172	-0.62393	-0.48218	-0.20615	-0.006409	-0.52612	-0.011292	0.08728	0.077209	-0.003967	-0.001068
21.351	0.001373	0.39887	0.5278	-0.003662	0.036621	0.003357	-0.13001	-0.000763	-0.038605	0.4393	-0.001984	-0.056	0.018158	-0.38574	-0.006714	0.044403	0.041962	-0.067291	0.77957	-0.036926	0.50278	0.43488	-0.64041	-0.27863	-0.12024	-0.009308	-0.24124	-0.006409	0.3627	0.10742	-0.003052	-0.000458
21.352	0.002136	0.32516	0.55222	0.009308	0.017242	0.055695	-0.13107	0.001221	-0.033875	0.34958	0.001373	-0.057831	-0.019226	-0.37781	-0.032196	-0.018921	0.059357	0.051575	0.63828	-0.035553	0.45898	0.45303	-0.63614	-0.21957	-0.13443	-0.008392	-0.20172	-0.012054	0.4393	0.049591	-0.005188	-0.005493
21.353	-0.000305	0.2832	0.59052	0.023956	0.009003	0.080719	-0.14542	-0.009613	-0.05127	-0.1384	0.000458	-0.012665	-0.015259	-0.27908	-0.039978	-0.061493	0.07782	0.024109	0.52246	-0.005493	0.39703	0.40894	-0.6369	-0.22614	-0.044556	-0.005798	-0.10788	-0.004272	0.22095	-0.026855	-0.003967	-0.005951
21.354	-0.005341	0.15793	0.61874	0.020294	0.017242	0.085297	-0.12482	0.006561	-0.051117	-0.038452	0.010681	-0.000153	-0.044861	0.12695	-0.02655	-0.027771	0.089417	-0.10635	0.5986	0.03418	0.28931	0.36911	-0.54916	-0.18997	0.25253	-0.005188	0.005646	-0.005646	-0.18753	-0.037537	-0.005646	-0.001221
21.355	-0.005188	0.048218	0.63034	0.002441	-0.000153	0.084686	-0.10834	-0.000763	-0.05661	0.24948	0.003204	0.005798	-0.038757	0.29602	-0.044861	-0.010071	0.10178	-0.11032	0.37628	0.072632	0.24811	0.36377	-0.39764	-0.2002	0.4689	-0.011902	0.04715	-0.003357	-0.44769	0.005341	0.004272	-0.000458
21.356	0.000153	0.072937	0.64255	-0.001831	-0.011749	0.058289	-0.09079	0.007935	-0.053864	0.30945	0.010834	0.00412	-0.043335	0.28137	-0.018921	0.032349	0.077209	0.03006	-0.029602	0.13718	0.28153	0.37247	-0.45319	-0.092316	0.34225	-0.007172	0.027008	-0.007019	-0.51514	0.004425	-0.004578	-0.000763
21.357	-0.00061	0.085297	0.62759	-0.000916	-0.009155	0.032806	-0.068207	0.000458	-0.06134	0.44037	0.021515	0.011139	-0.059204	0.57281	-0.021362	0.020599	0.044098	0.11795	-0.17441	0.1326	0.30914	0.33829	-0.40558	-0.086212	0.03891	-0.01236	0.023499	-0.004425	-0.32089	0.02121	-0.002441	-0.00061
21.358	-0.005341	0.1236	0.62256	0.003052	0.018768	0.016785	-0.062714	-0.00061	-0.061646	0.62012	0.0177	0.014801	-0.039063	0.6247	-0.003357	0.053558	0.06134	0.06958	0.13672	0.094299	0.53406	0.23102	-0.2562	-0.023346	-0.25894	-0.012207	-0.020447	-0.003967	0.40024	-0.072784	-0.000458	0.003662
21.359	-0.000305	0.10269	0.62912	0.003204	0.038147	0.039673	-0.055389	0.006561	-0.065613	0.31097	0.000305	-0.002747	-0.000458	0.51285	0.042267	0.024872	0.060883	-0.037689	0.34576	0.062714	0.42496	0.14008	-0.22842	0.09552	-0.16296	-0.010223	-0.02655	-0.006409	0.14542	-0.063934	-0.001526	0.008698
21.36	-0.005798	0.083466	0.62973	-0.00824	0.020599	0.078278	-0.055237	0.003204	-0.067749	-0.13596	0.01358	-0.002441	-0.061035	0.35797	0.045166	-0.016785	0.060577	-0.075836	0.16647	0.018768	0.31296	0.18768	-0.24597	0.1297	-0.011749	-0.010681	0.1236	-0.000458	0.13962	-0.01236	-0.002747	0.003204
21.361	-0.003967	0.14023	0.62302	-0.009918	0.003204	0.065918	-0.028839	0.002899	-0.063629	-0.48675	0.013885	-0.003662	-0.080414	0.38742	0.040741	-0.7341	0.057068	-0.18127	-0.14114	-0.037689	0.28198	0.32959	-0.25253	0.25864	0.18127	-0.010834	0.064545	0.009918	0.20371	0.020599	-0.000458	0.006104
